inDegrees=yes
name=ik_OwnShooting_orientations2.mot
DataType=double
version=3
OpenSimVersion=4.3-2021-08-27-4bc7ad9
endheader
time	pelvis_tilt	pelvis_list	pelvis_rotation	pelvis_tx	pelvis_ty	pelvis_tz	hip_flexion_r	hip_adduction_r	hip_rotation_r	knee_angle_r	knee_angle_r_beta	ankle_angle_r	subtalar_angle_r	mtp_angle_r	hip_flexion_l	hip_adduction_l	hip_rotation_l	knee_angle_l	knee_angle_l_beta	ankle_angle_l	subtalar_angle_l	mtp_angle_l	lumbar_extension	lumbar_bending	lumbar_rotation	arm_flex_r	arm_add_r	arm_rot_r	elbow_flex_r	pro_sup_r	wrist_flex_r	wrist_dev_r	arm_flex_l	arm_add_l	arm_rot_l	elbow_flex_l	pro_sup_l	wrist_flex_l	wrist_dev_l
3.64	3.619132599093732	2.284567542940606	61.87895004709817	0	0.9399999999999999	0	44.9938832398351	-9.999999996241977	0	59.99793450546451	1.047161501516271	-4.999999851057924	0	0	44.9938832398351	-9.999999996241977	0	59.99793450546451	1.047161501516271	-4.999999851057924	0	0	-3.57610556915145	0.3784880278501927	-0.1965273467378243	37.97452951777174	12.31293348702878	-50.63585005496651	149.9967588324785	45.00000050034846	0	0	0	-14.81620464971322	0	75.0068287945234	45.00000050034846	0	0
3.65	3.621370678045404	2.299824248729744	61.87886898617863	0	0.9399999999999999	0	44.9938849895623	-9.999999996234308	0	59.99793500036913	1.047161510153987	-4.999999851057911	0	0	44.9938849895623	-9.999999996234308	0	59.99793500036913	1.047161510153987	-4.999999851057911	0	0	-3.597256686651557	0.3519977067275404	-0.1692551000415767	39.13384689487384	12.74233191541664	-50.61109666997096	149.9968630614292	45.00000050015461	0	0	0	-14.81623154867329	0	75.00682689146298	45.00000050015461	0	0
3.66	3.631016655657905	2.31140754241827	61.85731820012477	0	0.9399999999999999	0	44.99388628028602	-9.999999996228667	0	59.9979353660955	1.047161516537116	-4.999999851057901	0	0	44.99388628028602	-9.999999996228667	0	59.9979353660955	1.047161516537116	-4.999999851057901	0	0	-3.624935947728004	0.3386693935394139	-0.1235121011831835	39.75402677001218	12.94878117258982	-49.79471430307485	149.9969272829039	45.00000050001191	0	0	0	-14.8162514181043	0	75.00682548762968	45.00000050001191	0	0
3.67	3.642748496485639	2.345295435728873	61.8867684679437	0	0.9399999999999999	0	44.99393473764974	-9.999999996023046	0	59.99794983389853	1.047161769047914	-4.999999851057529	0	0	44.99393473764974	-9.999999996023046	0	59.99794983389853	1.047161769047914	-4.999999851057529	0	0	-3.664527071862735	0.3335153982655774	-0.1463991519038377	37.9363519992179	12.06697393346301	-50.26657273038085	149.9967595046466	45.00000049478193	0	0	0	-14.81701272435685	0	75.00677278381143	45.00000049478193	0	0
3.68	3.676511889181428	2.345219269682099	61.91744923929087	0	0.9399999999999999	0	44.99399830166485	-9.999999995732251	0	59.9979673869962	1.047162075407263	-4.999999851057001	0	0	44.99399830166485	-9.999999995732251	0	59.9979673869962	1.047162075407263	-4.999999851057001	0	0	-3.654410966598704	0.3763156624977863	-0.1999878619224046	38.27457493642054	11.64803987618128	-51.65896675555513	149.9967917864649	45.00000048743325	0	0	0	-14.8179468434727	0	75.00670364953302	45.00000048743325	0	0
3.69	3.693986233758209	2.363910136052032	61.89095388509499	0	0.9399999999999999	0	44.99399948241776	-9.99999999572735	0	59.99796772386831	1.04716208128679	-4.999999851056995	0	0	44.99399948241776	-9.99999999572735	0	59.99796772386831	1.04716208128679	-4.999999851056995	0	0	-3.675061440022695	0.3711374312223675	-0.1481648534471519	38.44137624430333	11.726801536449	-51.5176000913266	149.9968051020959	45.00000048730751	0	0	0	-14.8179652289682	0	75.00670236530749	45.00000048730751	0	0
3.7	3.701727671091152	2.389953939745831	61.9145736943367	0	0.9399999999999999	0	44.99402941361993	-9.999999995576635	0	59.99797594421645	1.047162224758931	-4.999999851056714	0	0	44.99402941361993	-9.999999995576635	0	59.99797594421645	1.047162224758931	-4.999999851056714	0	0	-3.685168676877798	0.3622522159143517	-0.168205949606972	39.03013234289737	12.12415368885019	-50.46050320126219	149.9968703774019	45.00000048357254	0	0	0	-14.81838959360848	0	75.00666981117361	45.00000048357254	0	0
3.71	3.709058624119039	2.401999665427523	61.89523664577249	0	0.9399999999999999	0	44.99411760677834	-9.999999995240964	0	59.99800132976976	1.047162667820418	-4.999999851056139	0	0	44.99411760677834	-9.999999995240964	0	59.99800132976976	1.047162667820418	-4.999999851056139	0	0	-3.69365695514387	0.3522290117242053	-0.1454068702482587	39.64432222952796	11.51269656380837	-52.53775757627567	149.9969218196426	45.00000047472369	0	0	0	-14.81977451172793	0	75.00657388939233	45.00000047472369	0	0
3.72	3.727771784143258	2.400844993437454	61.91462631358232	0	0.9399999999999999	0	44.99411861234792	-9.999999995236987	0	59.998001617449	1.047162672841368	-4.999999851056134	0	0	44.99411861234792	-9.999999995236987	0	59.998001617449	1.047162672841368	-4.999999851056134	0	0	-3.67746281976408	0.3861020498385177	-0.1462890758839929	40.19405226340939	11.40761155865554	-52.40473228950928	149.9969797480222	45.00000047462027	0	0	0	-14.81979030861598	0	75.00657279570183	45.00000047462027	0	0
3.73	3.74271048575798	2.430185528898598	61.89666336733742	0	0.9399999999999999	0	44.99411974291996	-9.999999995232518	0	59.99800194088255	1.047162678486349	-4.999999851056127	0	0	44.99411974291996	-9.999999995232518	0	59.99800194088255	1.047162678486349	-4.999999851056127	0	0	-3.720889437916192	0.3691076923452795	-0.1112090904970469	40.47506399598668	11.40109092883401	-51.68902730978943	149.9970124494202	45.00000047450401	0	0	0	-14.81980806998942	0	75.00657156605449	45.00000047450401	0	0
3.74	3.785817357808717	2.4440795901084	61.9525372168026	0	0.9399999999999999	0	44.99419078141381	-9.999999994968665	0	59.99802253227729	1.047163037873984	-4.999999851055677	0	0	44.99419078141381	-9.999999994968665	0	59.99802253227729	1.047163037873984	-4.999999851055677	0	0	-3.728988667353021	0.4163577849612175	-0.213642696280948	40.26964975500129	10.61389948984009	-53.66491625526594	149.9969967754341	45.00000046750151	0	0	0	-14.82093135813502	0	75.00649430224657	45.00000046750151	0	0
3.75	3.762753432438211	2.458452499714469	61.94871099617511	0	0.9399999999999999	0	44.99422319602509	-9.999999994840856	0	59.99803168649468	1.047163197645218	-4.999999851055461	0	0	44.99422319602509	-9.999999994840856	0	59.99803168649468	1.047163197645218	-4.999999851055461	0	0	-3.740209061820237	0.3806639949861773	-0.1825484282254818	41.95224953997249	10.34147450109265	-54.81864862164324	149.9971371116779	45.00000046413164	0	0	0	-14.82142262524454	0	75.00645904705691	45.00000046413164	0	0
3.76	3.79220046584125	2.46856661210273	61.92665243603362	0	0.9399999999999999	0	44.99422466526489	-9.999999994835292	0	59.99803210783391	1.047163204998975	-4.999999851055451	0	0	44.99422466526489	-9.999999994835292	0	59.99803210783391	1.047163204998975	-4.999999851055451	0	0	-3.769990193770283	0.388791425296182	-0.1380194860844552	42.1789351009427	10.53815867396734	-53.86710523609651	149.99716113968	45.00000046398499	0	0	0	-14.82144588970391	0	75.00645744906325	45.00000046398499	0	0
3.77	3.813956430589202	2.472428093996356	61.97060058513393	0	0.9399999999999999	0	44.99430207346647	-9.99999999457326	0	59.99805484412561	1.047163601822125	-4.999999851055017	0	0	44.99430207346647	-9.99999999457326	0	59.99805484412561	1.047163601822125	-4.999999851055017	0	0	-3.787140937316592	0.4043090078034494	-0.1983128592717886	42.05896096851205	9.910607140930962	-56.74767632197465	149.9971378408843	45.00000045686816	0	0	0	-14.82270294739592	0	75.00637325733206	45.00000045686816	0	0
3.78	3.823903320269411	2.494907512382752	61.98054332656189	0	0.9399999999999999	0	44.99432204647179	-9.999999994478772	0	59.99805981804364	1.047163688633372	-4.99999985105485	0	0	44.99432204647179	-9.999999994478772	0	59.99805981804364	1.047163688633372	-4.99999985105485	0	0	-3.808541737216853	0.3925830842759973	-0.1874368549811984	42.65736330747279	9.504704975603193	-57.85612276579779	149.9971865053516	45.00000045443503	0	0	0	-14.82296384191764	0	75.00635153405925	45.00000045443503	0	0
3.79	3.854807532699416	2.518555674259386	61.96457868260897	0	0.9399999999999999	0	44.9943235586824	-9.999999994473281	0	59.99806025343749	1.047163696232428	-4.999999851054842	0	0	44.9943235586824	-9.999999994473281	0	59.99806025343749	1.047163696232428	-4.999999851054842	0	0	-3.838431794402565	0.405701994287428	-0.1572845857561892	42.261460235428	9.458427729913126	-56.97518516227085	149.9971633473844	45.00000045428862	0	0	0	-14.82298799609053	0	75.00634988932903	45.00000045428862	0	0
3.8	3.876441897689724	2.528988000155155	62.00261445232037	0	0.9399999999999999	0	44.99438034081709	-9.999999994278854	0	59.99807728607509	1.047163993508034	-4.99999985105452	0	0	44.99438034081709	-9.999999994278854	0	59.99807728607509	1.047163993508034	-4.99999985105452	0	0	-3.8338441883087	0.4341012200951875	-0.2024876394032104	40.27157464355641	8.667427605228699	-58.57882228570998	149.9969946239786	45.00000044902961	0	0	0	-14.82391571096409	0	75.00628813119235	45.00000044902961	0	0
3.81	3.890605013716161	2.518807071154474	62.04090735580539	0	0.9399999999999999	0	44.9943813192103	-9.999999994275392	0	59.99807756836225	1.047163998434874	-4.999999851054516	0	0	44.9943813192103	-9.999999994275392	0	59.99807756836225	1.047163998434874	-4.999999851054516	0	0	-3.797774813671461	0.4604869309584023	-0.2318035269769205	40.64192743676961	8.34443316810456	-59.13368434161199	149.9970333078521	45.0000004489365	0	0	0	-14.82393141792455	0	75.00628706705947	45.0000004489365	0	0
3.82	3.88822149379487	2.547421681743132	61.99416789182921	0	0.9399999999999999	0	44.99441694558526	-9.999999994142264	0	59.99808807343879	1.047164181783048	-4.999999851054288	0	0	44.99441694558526	-9.999999994142264	0	59.99808807343879	1.047164181783048	-4.999999851054288	0	0	-3.803312523584459	0.423365445409007	-0.1463987149175234	41.00440196621835	8.152022324171339	-57.86473068366626	149.9970859497763	45.00000044539583	0	0	0	-14.82449274832504	0	75.00624831864123	45.00000044539583	0	0
3.83	3.920840374189867	2.575897163407526	62.03450423920054	0	0.9399999999999999	0	44.99447772943473	-9.999999993953665	0	59.99810672235609	1.047164507268057	-4.999999851053984	0	0	44.99447772943473	-9.999999993953665	0	59.99810672235609	1.047164507268057	-4.999999851053984	0	0	-3.859010692332327	0.449938903034893	-0.2050680326334876	38.25195706545099	7.70790503881102	-58.04387836347854	149.996834705214	45.00000044016568	0	0	0	-14.82551569743845	0	75.00618220809042	45.00000044016568	0	0
